<?xml version="1.0" standalone="no"?>
<!DOCTYPE svg PUBLIC "-//W3C//DTD SVG 20010904//EN"
 "http://www.w3.org/TR/2001/REC-SVG-20010904/DTD/svg10.dtd">
<svg version="1.0" xmlns="http://www.w3.org/2000/svg"
 width="5000.000000pt" height="5000.000000pt" viewBox="0 0 5000.000000 5000.000000"
 preserveAspectRatio="xMidYMid meet">
<metadata>
Created by potrace 1.14, written by Peter Selinger 2001-2017
</metadata>
<g transform="translate(0.000000,5000.000000) scale(0.100000,-0.100000)"
fill="#000000" stroke="none">
<path d="M24395 49993 c-341 -7 -973 -40 -1390 -73 -1544 -122 -3140 -404
-4647 -819 -4952 -1366 -9360 -4221 -12635 -8183 -3386 -4097 -5383 -9195
-5683 -14508 -47 -842 -51 -1826 -10 -2640 127 -2494 614 -4925 1453 -7251
1441 -3992 3864 -7540 7055 -10332 2731 -2390 5946 -4155 9427 -5176 1942
-569 3842 -884 5960 -988 431 -21 1638 -24 2045 -5 1551 72 2843 234 4240 532
4367 932 8376 2998 11680 6019 2356 2155 4303 4788 5680 7681 2780 5842 3191
12523 1145 18655 -1485 4454 -4178 8381 -7798 11372 -3077 2544 -6743 4320
-10654 5162 -1924 414 -3844 596 -5868 554z m375 -8303 c2063 -70 3819 -466
5433 -1226 1218 -573 2389 -1423 3323 -2411 496 -525 726 -792 1027 -1193
2186 -2908 3138 -7198 2887 -13005 -200 -4630 -1189 -8229 -2958 -10765 -342
-490 -618 -822 -1027 -1239 -1200 -1220 -2615 -2106 -4325 -2706 -1268 -446
-2730 -721 -4305 -810 -590 -33 -922 -35 -6607 -35 l-5698 0 0 585 0 585 723
0 c879 0 1071 10 1352 71 619 133 940 497 1032 1169 17 130 18 612 18 14290 0
13678 -1 14160 -18 14290 -93 682 -415 1041 -1054 1174 -270 56 -458 66 -1230
66 l-623 0 0 585 0 585 5878 0 c3698 0 5986 -4 6172 -10z"/>
<path d="M22920 40418 c-359 -70 -762 -208 -917 -315 -152 -103 -307 -285
-392 -458 -82 -166 -123 -325 -141 -540 -13 -165 -13 -28045 0 -28210 42 -511
269 -866 710 -1110 164 -90 386 -177 450 -177 45 1 373 62 576 107 1806 405
3378 1292 4739 2676 215 219 337 359 512 589 1511 1986 2376 5373 2573 10070
57 1378 57 3101 0 4395 -181 4056 -878 7041 -2102 8999 -129 206 -237 361
-469 671 -552 739 -1111 1307 -1775 1806 -1057 794 -2306 1302 -3694 1502 -14
2 -45 0 -70 -5z"/>
</g>
</svg>
